<?xml version="1.0" standalone="no"?>
<!DOCTYPE svg PUBLIC "-//W3C//DTD SVG 20010904//EN"
 "http://www.w3.org/TR/2001/REC-SVG-20010904/DTD/svg10.dtd">
<svg version="1.0" xmlns="http://www.w3.org/2000/svg"
 width="512.000000pt" height="512.000000pt" viewBox="0 0 512.000000 512.000000"
 preserveAspectRatio="xMidYMid meet">

<g transform="translate(0.000000,512.000000) scale(0.100000,-0.100000)"
fill="#000000" stroke="none">
<path d="M3625 5106 c-16 -8 -275 -260 -575 -560 l-545 -546 -605 0 c-333 0
-637 -5 -675 -10 -187 -24 -335 -142 -395 -313 -18 -52 -23 -92 -27 -246 l-6
-184 -82 -121 c-389 -574 -591 -1184 -547 -1659 20 -220 62 -375 152 -562 186
-388 530 -691 937 -824 235 -77 320 -83 1053 -78 682 4 688 5 909 78 534 176
940 626 1061 1176 92 417 7 893 -254 1419 -83 167 -208 379 -296 500 l-58 80
-4 195 -3 194 -36 75 c-62 128 -149 206 -280 250 -53 19 -95 23 -242 28 l-179
5 408 408 409 409 550 0 c513 0 553 1 585 18 38 20 80 89 80 132 0 43 -42 112
-80 132 -32 17 -73 18 -630 18 -480 -1 -601 -3 -625 -14z m-391 -1416 c48 -11
84 -36 114 -80 20 -29 22 -45 22 -147 l0 -113 -1132 2 -1133 3 -3 75 c-7 152
36 237 130 258 56 13 1949 15 2002 2z m250 -687 c107 -147 267 -431 341 -605
239 -559 253 -991 44 -1398 -147 -288 -424 -526 -729 -630 -188 -63 -181 -63
-835 -67 -640 -5 -724 -1 -882 42 -211 56 -390 158 -552 312 -209 199 -332
421 -388 701 -28 141 -23 383 11 545 70 339 222 681 460 1039 l71 108 1212 0
1213 0 34 -47z"/>
</g>
</svg>
